<svg xmlns="http://www.w3.org/2000/svg" width="24" height="24" viewBox="0 0 24 24" role="img" aria-label="Google">
  <circle cx="12" cy="12" r="11" fill="#ffffff"/>
  <path d="M12 6.5a5.5 5.5 0 1 1-3.9 9.4l1.6-1.5A3.3 3.3 0 1 0 8.7 9L7 7.5A5.5 5.5 0 0 1 12 6.5Z" fill="#4285F4"/>
  <path d="M12 11h5.2a5.6 5.6 0 0 1 .1 1c0 3.1-2.1 5.5-5.3 5.5a5.5 5.5 0 0 1-4.9-3.1l1.9-1.1a3.3 3.3 0 0 0 3 2c1.7 0 2.8-.8 3.2-2H12V11Z" fill="#34A853"/>
  <path d="M7.1 14.4a5.4 5.4 0 0 1 0-4.8L9 10.7a3.2 3.2 0 0 0 0 2.6l-1.9 1.1Z" fill="#FBBC05"/>
  <path d="M12 6.5c1.5 0 2.8.5 3.8 1.4L14.2 9.6a3.1 3.1 0 0 0-2.2-.8c-1.4 0-2.6.8-3.1 2l-1.9-1.2A5.5 5.5 0 0 1 12 6.5Z" fill="#EA4335"/>
</svg>
